<svg xmlns="http://www.w3.org/2000/svg" viewBox="0 0 854.33 168.99"><defs><style>.cls-1{fill:#ee6f00;}</style></defs><g id="Layer_2" data-name="Layer 2"><path d="M209,132.22a30.45,30.45,0,0,1-12.16,9.09,32.71,32.71,0,0,1-13,2.78A33.55,33.55,0,0,1,170,141.16a31.69,31.69,0,0,1-11.28-7.91,28.54,28.54,0,0,1-6.3-11.57,54.68,54.68,0,0,1-1.32-13v-34H158v34a51.41,51.41,0,0,0,.74,9.52,25.28,25.28,0,0,0,4.1,9.23A24.21,24.21,0,0,0,172.2,135a27.68,27.68,0,0,0,12,2.63,26.09,26.09,0,0,0,20.37-10,20.1,20.1,0,0,0,3.66-9.08,51.64,51.64,0,0,0,.73-10v-34h6.88v66.79H209Z"/><path d="M245.52,93.55a35.27,35.27,0,0,0-1.76,12.16v36.48h-6.59V73.63h6.59v12.6a28.12,28.12,0,0,1,24.91-14.06v6.44a65.23,65.23,0,0,0-8.06,1.47,19.84,19.84,0,0,0-6.74,3.36A23.87,23.87,0,0,0,245.52,93.55Z"/><path d="M299.06,142.33,271.67,74.07H279L302.43,134,325,74.07h7.18l-25.93,68.26Z"/><path d="M354.36,129.88a26.67,26.67,0,0,0,18.9,7.76,31.13,31.13,0,0,0,16.26-4.1A30.2,30.2,0,0,0,400.36,122h7.91a40.09,40.09,0,0,1-14.65,16.41,36.4,36.4,0,0,1-19.48,5.42,35.07,35.07,0,0,1-25.78-10.55A34.63,34.63,0,0,1,338,107.76,35.3,35.3,0,0,1,348.36,82,34.59,34.59,0,0,1,374,71.43,35,35,0,0,1,389.37,75a37.43,37.43,0,0,1,12.46,9.81,34.13,34.13,0,0,1,6,11.28,70.15,70.15,0,0,1,2.05,13.48H345A29.16,29.16,0,0,0,354.36,129.88Zm1.18-45.41q-8.21,7.19-10.7,19.48H402.7a29.7,29.7,0,0,0-10-18.89,27.15,27.15,0,0,0-18.6-7.33A27.78,27.78,0,0,0,355.54,84.47Z"/><path d="M433.4,169,445,141.89,416,74.36h7.18L449.07,134l27.1-59.62h7.18L440.43,169Z"/><path d="M533.89,137.35l62.11-82H537.55V48.87h66.51v6l-62.55,82h63.72v6.45H533.89Z"/><path d="M624.49,132.81a34,34,0,0,1-10.69-25A35.34,35.34,0,0,1,624.2,82a34.59,34.59,0,0,1,25.64-10.55q14.2,0,24.9,10.55t10.84,24.9A35,35,0,0,1,675,132.37a33.92,33.92,0,0,1-25.19,10.84A34.78,34.78,0,0,1,624.49,132.81Zm36.19-52.88a29.63,29.63,0,0,0-10.84-2.05,28,28,0,0,0-21,8.79,29.2,29.2,0,0,0-8.35,21.09A28,28,0,0,0,629,128.27a28.39,28.39,0,0,0,20.81,8.64,27.34,27.34,0,0,0,20.8-8.93,29.87,29.87,0,0,0,8.2-21.1,28.61,28.61,0,0,0-2.2-11.42,26,26,0,0,0-6.74-9.38A30.38,30.38,0,0,0,660.68,79.93Z"/><path d="M760.21,108.49a46.24,46.24,0,0,0-.87-10,23.92,23.92,0,0,0-3.81-9.23,24.78,24.78,0,0,0-9.67-7.76A28.74,28.74,0,0,0,734,79.05a26.38,26.38,0,0,0-11.42,2.64A24.64,24.64,0,0,0,713.63,89a18.33,18.33,0,0,0-4,9.08,87.11,87.11,0,0,0-.44,10.4v33.84h-6.89V75.53h6.89v9.23a30.38,30.38,0,0,1,12.16-9.23,33.52,33.52,0,0,1,13-2.63,34.83,34.83,0,0,1,13.63,2.78,30.09,30.09,0,0,1,11.42,8.2,28.1,28.1,0,0,1,6,11.28,47.59,47.59,0,0,1,1.61,13.33v33.84h-6.89Z"/><path d="M798.82,129.88a26.63,26.63,0,0,0,18.89,7.76,31.13,31.13,0,0,0,16.26-4.1A30.2,30.2,0,0,0,844.81,122h7.91a40.09,40.09,0,0,1-14.65,16.41,36.4,36.4,0,0,1-19.48,5.42,35.07,35.07,0,0,1-25.78-10.55,34.67,34.67,0,0,1-10.4-25.49A35.34,35.34,0,0,1,792.81,82a34.59,34.59,0,0,1,25.64-10.55A35.09,35.09,0,0,1,833.83,75a37.49,37.49,0,0,1,12.45,9.81,34.13,34.13,0,0,1,6,11.28,70.15,70.15,0,0,1,2.05,13.48H789.44A29.13,29.13,0,0,0,798.82,129.88ZM800,84.47q-8.21,7.19-10.7,19.48h57.87a29.79,29.79,0,0,0-10-18.89,27.19,27.19,0,0,0-18.61-7.33A27.78,27.78,0,0,0,800,84.47Z"/><path d="M97,143H0V112H110.28c-1.71-2.86-9.5-6.6-15.42-9.48L23.26,70.44C12.55,64.84.49,60.5.56,46A25,25,0,0,1,14,23.82,25,25,0,0,1,39,0h97V31H26c2.31,3.29,9.35,6.64,15.16,9.48l71.44,32C123.5,77.65,135.45,82.67,135.44,97A25,25,0,0,1,122,119.18,25,25,0,0,1,97,143ZM10,133H97a15,15,0,0,0,14.46-11c-1.83.06-99.8,0-101.46,0ZM27.74,61.5l71.5,32c8.06,4,17.12,7.8,20.7,15.07a15,15,0,0,0,5.5-11.6c.39-7.22-7.14-10.87-17.09-15.46L36.76,49.47C29.16,45.66,20.3,42,16.2,34.29A15,15,0,0,0,10.56,46C9.93,53.33,18.24,56.63,27.74,61.5ZM39,10A15,15,0,0,0,24.54,21c1.83-.06,99.8,0,101.46,0V10Z"/><path class="cls-1" d="M39,10A15,15,0,0,0,24.54,21l1,0H126V10Z"/><path class="cls-1" d="M97,133a15,15,0,0,0,14.46-11l-1,0H10v11Z"/></g></svg>