<svg xmlns="http://www.w3.org/2000/svg" viewBox="0 0 136 143"><defs><style>.cls-1{fill:#ee6f00;}</style></defs><g id="Layer_2" data-name="Layer 2"><path d="M97,143H0V112H110.28c-1.71-2.86-9.5-6.6-15.42-9.48L23.26,70.44C12.55,64.84.49,60.5.56,46A25,25,0,0,1,14,23.82,25,25,0,0,1,39,0h97V31H26c2.31,3.29,9.35,6.64,15.16,9.48l71.44,32C123.5,77.65,135.45,82.67,135.44,97A25,25,0,0,1,122,119.18,25,25,0,0,1,97,143ZM10,133H97a15,15,0,0,0,14.46-11c-1.83.06-99.8,0-101.46,0ZM27.74,61.5l71.5,32c8.06,4,17.12,7.8,20.7,15.07a15,15,0,0,0,5.5-11.6c.39-7.22-7.14-10.87-17.09-15.46L36.76,49.47C29.16,45.66,20.3,42,16.2,34.29A15,15,0,0,0,10.56,46C9.93,53.33,18.24,56.63,27.74,61.5ZM39,10A15,15,0,0,0,24.54,21c1.83-.06,99.8,0,101.46,0V10Z"/><path class="cls-1" d="M39,10A15,15,0,0,0,24.54,21l1,0H126V10Z"/><path class="cls-1" d="M97,133a15,15,0,0,0,14.46-11l-1,0H10v11Z"/></g></svg>