<svg id="Layer_1" data-name="Layer 1" xmlns="http://www.w3.org/2000/svg" viewBox="0 0 854.2 169"><g id="Layer_2" data-name="Layer 2"><path d="M209,132.2a30.64,30.64,0,0,1-12.2,9.1,32.31,32.31,0,0,1-13,2.8,34.15,34.15,0,0,1-13.8-2.9,33,33,0,0,1-11.3-7.9,28.6,28.6,0,0,1-6.3-11.6,51.72,51.72,0,0,1-1.3-13v-34H158v34a59.87,59.87,0,0,0,.7,9.5A23.72,23.72,0,0,0,172.2,135a26.53,26.53,0,0,0,12,2.6,26.12,26.12,0,0,0,20.4-10,21.41,21.41,0,0,0,3.7-9.1,48.1,48.1,0,0,0,.7-10v-34h6.9v66.8H209Z"/><path d="M245.5,93.6a35.75,35.75,0,0,0-1.8,12.2v36.5h-6.6V73.6h6.6V86.2a28.12,28.12,0,0,1,24.9-14.1v6.4a57.58,57.58,0,0,0-8.1,1.5,19.31,19.31,0,0,0-6.7,3.4A25,25,0,0,0,245.5,93.6Z"/><path d="M299.1,142.3,271.7,74H279l23.4,59.9L325,74.1h7.2l-25.9,68.3h-7.2Z"/><path d="M354.4,129.9a26.71,26.71,0,0,0,18.9,7.8,32.13,32.13,0,0,0,16.3-4.1,29.83,29.83,0,0,0,10.8-11.5h7.9a40.57,40.57,0,0,1-14.6,16.4,36.33,36.33,0,0,1-19.5,5.4A35.85,35.85,0,0,1,338,107.8,35.39,35.39,0,0,1,348.4,82a35.68,35.68,0,0,1,41-7,37.31,37.31,0,0,1,12.5,9.8,34.16,34.16,0,0,1,6,11.3,67.68,67.68,0,0,1,2,13.5H345A29.34,29.34,0,0,0,354.4,129.9Zm1.1-45.4c-5.5,4.8-9,11.3-10.7,19.5h57.9a29.63,29.63,0,0,0-10-18.9,28.22,28.22,0,0,0-37.2-.6Z"/><path d="M433.4,169,445,141.9,416,74.4h7.2L449.1,134l27.1-59.6h7.2l-43,94.6Z"/><path d="M533.9,137.4l62.1-82H537.5V48.9H604v6l-62.5,82h63.7v6.4H533.9Z"/><path d="M624.5,132.8a33.79,33.79,0,0,1-10.7-25,35.86,35.86,0,0,1,36-36.4c9.5,0,17.8,3.5,24.9,10.6a34.33,34.33,0,0,1,10.8,24.9,35,35,0,0,1-10.6,25.5,33.8,33.8,0,0,1-25.2,10.8A34.83,34.83,0,0,1,624.5,132.8Zm36.2-52.9a28.83,28.83,0,0,0-10.8-2.1,27.81,27.81,0,0,0-21,8.8,29,29,0,0,0-8.3,21.1,29.19,29.19,0,0,0,29.3,29.1,27.32,27.32,0,0,0,20.8-8.9,30.12,30.12,0,0,0,8.2-21.1,27.91,27.91,0,0,0-2.2-11.4A26.14,26.14,0,0,0,670,86,35.6,35.6,0,0,0,660.7,79.9Z"/><path d="M760.2,108.5a41.86,41.86,0,0,0-.9-10,23.35,23.35,0,0,0-3.8-9.2,24.71,24.71,0,0,0-9.7-7.8,28.47,28.47,0,0,0-11.9-2.4,26.1,26.1,0,0,0-11.4,2.6,25.48,25.48,0,0,0-9,7.3,18.77,18.77,0,0,0-4,9.1,72.36,72.36,0,0,0-.4,10.4v33.8h-6.9V75.5h6.9v9.2a30,30,0,0,1,12.2-9.2,33.89,33.89,0,0,1,13-2.6,33.46,33.46,0,0,1,13.6,2.8,30,30,0,0,1,11.4,8.2,28.06,28.06,0,0,1,6,11.3,45.75,45.75,0,0,1,1.6,13.3v33.8H760Z"/><path d="M798.8,129.9a26.71,26.71,0,0,0,18.9,7.8,32.13,32.13,0,0,0,16.3-4.1,29.83,29.83,0,0,0,10.8-11.5h7.9A40.1,40.1,0,0,1,838,138.5a36.33,36.33,0,0,1-19.5,5.4,35.85,35.85,0,0,1-36.2-36.1A35.46,35.46,0,0,1,792.7,82a35.68,35.68,0,0,1,41-7,38.32,38.32,0,0,1,12.5,9.8,34.16,34.16,0,0,1,6,11.3,67.68,67.68,0,0,1,2,13.5H789.3A29.87,29.87,0,0,0,798.8,129.9ZM800,84.5c-5.5,4.8-9,11.3-10.7,19.5h57.9a29.87,29.87,0,0,0-10-18.9,28.22,28.22,0,0,0-37.2-.6Z"/><path d="M97,143H0V112H110.3c-1.7-2.9-9.5-6.6-15.4-9.5L23.3,70.4C12.6,64.8.5,60.5.6,46A25.14,25.14,0,0,1,14,23.8,25,25,0,0,1,39,0h97V31H26c2.3,3.3,9.3,6.6,15.2,9.5l71.4,32c10.9,5.2,22.8,10.2,22.8,24.5A25.14,25.14,0,0,1,122,119.2,25,25,0,0,1,97,143ZM10,133H97a15.09,15.09,0,0,0,14.5-11c-1.8.1-99.8,0-101.5,0ZM27.7,61.5l71.5,32c8.1,4,17.1,7.8,20.7,15.1A14.85,14.85,0,0,0,125.4,97c.4-7.2-7.1-10.9-17.1-15.5l-71.6-32C29.1,45.7,20.2,42,16.1,34.3A14.83,14.83,0,0,0,10.5,46C9.9,53.3,18.2,56.6,27.7,61.5ZM39,10A15.09,15.09,0,0,0,24.5,21c1.8-.1,99.8,0,101.5,0V10Z"/><path d="M39,10A15.09,15.09,0,0,0,24.5,21H126V10Z" style="fill:#ee6f00"/><path d="M97,133a15.09,15.09,0,0,0,14.5-11H10v11Z" style="fill:#ee6f00"/></g></svg>