<?xml version="1.0" encoding="iso-8859-1"?>
<!-- Generator: Adobe Illustrator 25.0.1, SVG Export Plug-In . SVG Version: 6.00 Build 0)  -->
<svg version="1.1" id="Layer_1" xmlns="http://www.w3.org/2000/svg" xmlns:xlink="http://www.w3.org/1999/xlink" x="0px" y="0px"
	 viewBox="0 0 1920 1080" style="enable-background:new 0 0 1920 1080;" xml:space="preserve">
<path style="fill:#EFDDCA;" d="M1257.933,804.134c-67.508-0.989-276.696-5.167-403.657-16.804
	c-235.416-21.575-427.643,13.372-301.308,53.718c35.304,11.275-66.419,78.461,182.77,93.99
	c218.745,13.628,441.689-14.659,549.593-26.779c107.907-12.13,157.683-33.837,180.795-43.621
	C1486.449,856.033,1493.906,807.59,1257.933,804.134z"/>
<g>
	<path style="fill:#CC7217;" d="M1207.812,824.443c0,7.107-5.747,12.854-12.854,12.854l-435.697-0.246
		c-7.106,0-12.854-5.764-12.854-12.854l0.345-590.855c0.016-7.098,5.76-12.861,12.87-12.846l435.701,0.23
		c7.094,0.007,12.846,5.764,12.846,12.862L1207.812,824.443z"/>
	<path style="fill:#F7931E;" d="M1207.829,820.157c-0.017,7.103-5.764,12.85-12.871,12.85l-435.697-0.237
		c-7.106-0.008-12.854-5.772-12.854-12.862l0.345-590.846c0.016-7.107,5.76-12.854,12.87-12.854l435.701,0.229
		c7.098,0.017,12.846,5.764,12.846,12.871L1207.829,820.157z"/>
	<polygon style="fill:#D8730F;" points="1164.78,775.664 789.089,775.458 786.751,239.083 1162.454,239.279 	"/>
	<g>
		<polygon style="fill:#EAF4FE;" points="1166.613,772.339 790.767,772.127 791.029,240.561 1166.892,240.769 		"/>
		<g>
			<polygon style="fill:#534741;" points="1119.569,330.781 835.863,330.617 835.863,325.721 1119.569,325.869 			"/>
			<rect x="835.863" y="337.324" style="fill:#534741;" width="280.154" height="4.9"/>
			<polygon style="fill:#534741;" points="1119.553,353.828 835.846,353.672 835.863,348.776 1119.553,348.932 			"/>
			<rect x="835.846" y="360.375" style="fill:#534741;" width="283.708" height="4.904"/>
			<rect x="835.846" y="371.902" style="fill:#534741;" width="278.975" height="4.902"/>
			<polygon style="fill:#534741;" points="1119.537,388.408 835.846,388.26 835.846,383.348 1119.537,383.512 			"/>
			<polygon style="fill:#534741;" points="1113.605,399.929 835.83,399.79 835.83,394.877 1113.625,395.025 			"/>
			<polygon style="fill:#534741;" points="896.105,411.393 835.83,411.377 835.83,406.465 896.105,406.497 			"/>
		</g>
		<polygon style="fill:#534741;" points="1017.064,298.383 835.878,298.285 835.878,290.311 1017.064,290.421 		"/>
		<rect x="871.575" y="434.924" style="fill:#534741;" width="242.476" height="4.912"/>
		<polygon style="fill:#534741;" points="1049.06,448.842 871.555,448.748 871.575,443.832 1049.076,443.929 		"/>
		<polygon style="fill:#534741;" points="1107.022,469.67 871.551,469.56 871.555,464.652 1107.022,464.774 		"/>
		<polygon style="fill:#534741;" points="934.421,478.554 871.543,478.533 871.551,473.617 934.421,473.658 		"/>
		<rect x="871.543" y="494.474" style="fill:#534741;" width="146.995" height="4.908"/>
		<rect x="871.526" y="524.263" style="fill:#534741;" width="123.318" height="4.896"/>
		<rect x="871.51" y="533.262" style="fill:#534741;" width="242.484" height="4.904"/>
		<rect x="871.51" y="554.066" style="fill:#534741;" width="190.781" height="4.896"/>
		<polygon style="fill:#534741;" points="998.332,586.143 871.494,586.078 871.494,581.173 998.332,581.247 		"/>
		<path style="fill:#534741;" d="M835.437,432.991v17.521l17.52,0.016v-17.529L835.437,432.991z M850.108,447.679l-11.823-0.008
			v-11.831h11.839L850.108,447.679z"/>
		<path style="fill:#534741;" d="M835.437,462.343l-0.017,17.529l17.537,0.008v-17.529L835.437,462.343z M850.092,477.023h-11.806
			V465.2h11.823L850.092,477.023z"/>
		<path style="fill:#534741;" d="M835.42,491.695l-0.016,17.521l17.537,0.017v-17.525L835.42,491.695z M850.076,506.382
			l-11.806-0.016v-11.823l11.822,0.008L850.076,506.382z"/>
		<path style="fill:#534741;" d="M835.387,521.038v17.537h17.521l0.016-17.522L835.387,521.038z M850.059,535.726l-11.822-0.008
			l0.016-11.822l11.823,0.008L850.059,535.726z"/>
		<path style="fill:#534741;" d="M835.387,550.397l-0.016,17.522l17.521,0.02l0.017-17.525L835.387,550.397z M850.039,565.086
			l-11.819-0.017l0.017-11.822h11.822L850.039,565.086z"/>
		<path style="fill:#534741;" d="M835.371,579.757l-0.021,17.512l17.526,0.013l0.016-17.525H835.371z M850.026,594.429h-11.822
			l0.016-11.839l11.819,0.016L850.026,594.429z"/>
		<g>
			<g>
				<path style="fill:#FF0000;" d="M840.366,478.136c-0.541,0-1.085-0.205-1.494-0.615c-0.815-0.818-0.815-2.141,0-2.964
					l9.435-9.424c0.819-0.819,2.141-0.819,2.965,0c0.818,0.823,0.818,2.145,0,2.964l-9.432,9.423
					C841.43,477.932,840.898,478.136,840.366,478.136z"/>
			</g>
			<g>
				<path style="fill:#FF0000;" d="M849.78,478.136c-0.54,0-1.081-0.205-1.49-0.615l-9.419-9.432c-0.815-0.818-0.815-2.145,0-2.964
					c0.823-0.819,2.149-0.819,2.968,0l9.415,9.432c0.819,0.823,0.819,2.145,0,2.964C850.845,477.932,850.313,478.136,849.78,478.136
					z"/>
			</g>
		</g>
		<g>
			<g>
				<path style="fill:#FF0000;" d="M840.3,564.873c-0.541,0-1.081-0.205-1.491-0.615c-0.818-0.818-0.818-2.145,0-2.959l9.432-9.419
					c0.819-0.819,2.145-0.819,2.964,0c0.819,0.818,0.819,2.149,0,2.964l-9.432,9.415C841.36,564.668,840.832,564.873,840.3,564.873z
					"/>
			</g>
			<g>
				<path style="fill:#FF0000;" d="M849.732,564.873c-0.545,0-1.081-0.205-1.491-0.615l-9.432-9.432
					c-0.818-0.818-0.818-2.145,0-2.964c0.819-0.818,2.141-0.818,2.964,0l9.432,9.436c0.819,0.815,0.819,2.141,0,2.959
					C850.796,564.668,850.26,564.873,849.732,564.873z"/>
			</g>
		</g>
		<g>
			<path style="fill:#FF0000;" d="M845.671,446.373c-0.573,0-1.122-0.241-1.515-0.659l-4.38-4.618
				c-0.802-0.835-0.77-2.161,0.081-2.96c0.831-0.807,2.161-0.765,2.956,0.078l2.751,2.898l8.212-9.985
				c0.737-0.888,2.063-1.027,2.943-0.29c0.905,0.737,1.027,2.055,0.29,2.96l-9.719,11.81c-0.376,0.459-0.949,0.737-1.538,0.765
				C845.716,446.373,845.695,446.373,845.671,446.373z"/>
		</g>
		<g>
			<path style="fill:#FF0000;" d="M846.518,505.064c-0.569,0-1.118-0.237-1.502-0.647l-4.405-4.609
				c-0.802-0.842-0.774-2.166,0.074-2.964c0.835-0.81,2.169-0.761,2.955,0.066l2.763,2.898l8.191-9.956
				c0.737-0.909,2.056-1.031,2.948-0.302c0.892,0.737,1.024,2.055,0.295,2.948l-9.694,11.798c-0.376,0.467-0.933,0.745-1.539,0.77
				C846.58,505.064,846.547,505.064,846.518,505.064z"/>
		</g>
		<g>
			<path style="fill:#FF0000;" d="M841.246,534.849c-0.569,0-1.118-0.237-1.511-0.655l-4.385-4.614
				c-0.798-0.839-0.765-2.165,0.086-2.968c0.835-0.794,2.161-0.753,2.955,0.082l2.743,2.89l8.187-9.972
				c0.728-0.901,2.047-1.031,2.948-0.294c0.892,0.737,1.024,2.055,0.287,2.951l-9.686,11.81c-0.376,0.471-0.941,0.745-1.539,0.77
				C841.299,534.849,841.282,534.849,841.246,534.849z"/>
		</g>
		<g>
			<path style="fill:#FF0000;" d="M844.721,592.681c-0.577,0-1.114-0.242-1.515-0.659l-4.388-4.618
				c-0.802-0.835-0.761-2.161,0.074-2.956c0.835-0.802,2.161-0.77,2.964,0.074l2.746,2.898l8.192-9.972
				c0.733-0.909,2.063-1.024,2.955-0.295c0.893,0.737,1.024,2.055,0.287,2.952l-9.693,11.802c-0.377,0.467-0.95,0.745-1.539,0.774
				C844.771,592.681,844.754,592.681,844.721,592.681z"/>
		</g>
	</g>
	<g>
		<path style="fill:#9AC7F7;" d="M992.155,187.814l-10.247-17.767c4.486-3.979,7.368-9.734,7.384-16.211
			c0-12.035-9.75-21.795-21.762-21.795c-12.052-0.016-21.81,9.743-21.81,21.77c0,6.476,2.866,12.232,7.352,16.219l-10.254,17.75
			l-24.689,42.705l49.336,0.033l49.337,0.028L992.155,187.814z M967.498,164.185c-5.731-0.004-10.348-4.642-10.348-10.365
			c0-5.722,4.634-10.357,10.381-10.349c5.699,0,10.333,4.634,10.333,10.357C977.864,159.551,973.213,164.185,967.498,164.185z"/>
		<path style="fill:#C5E1F9;" d="M991.274,187.814l-10.251-17.767c4.487-3.979,7.368-9.734,7.368-16.211
			c0.017-12.035-9.743-21.795-21.778-21.795c-12.003-0.016-21.779,9.743-21.779,21.77c0,6.476,2.866,12.232,7.353,16.219
			l-10.267,17.75l-24.694,42.713l49.333,0.024l49.337,0.028L991.274,187.814z M966.597,164.185
			c-5.699-0.004-10.353-4.642-10.353-10.365c0-5.715,4.654-10.357,10.369-10.357c5.714,0.008,10.365,4.642,10.348,10.366
			C976.962,159.551,972.328,164.185,966.597,164.185z"/>
		<polygon style="fill:#C5E1F9;" points="1042.445,259.224 895.298,259.146 895.335,196.279 1042.473,196.361 		"/>
		<rect x="895.327" y="207.75" style="fill:#9AC7F7;" width="147.136" height="35.713"/>
		<polygon style="fill:#C5E1F9;" points="1042.458,229.487 895.319,229.405 895.335,216.011 1042.458,216.093 		"/>
		<rect x="895.335" y="202.035" style="fill:#C5E1F9;" width="147.139" height="5.715"/>
		<path style="fill:#9AC7F7;" d="M966.614,140.606c-7.287,0-13.215,5.911-13.215,13.214c-0.017,7.303,5.911,13.218,13.198,13.218
			c7.303,0.004,13.214-5.899,13.23-13.202C979.828,146.533,973.917,140.606,966.614,140.606z M966.597,164.185
			c-5.699-0.004-10.353-4.642-10.353-10.365c0-5.715,4.654-10.357,10.369-10.357c5.714,0.008,10.365,4.642,10.348,10.366
			C976.962,159.551,972.328,164.185,966.597,164.185z"/>
	</g>
</g>
<g>
	<g>
		<path style="opacity:0.08;fill:#2B778F;" d="M771.972,978.364c0,21.26-42.535,38.494-95,38.494
			c-52.465,0-94.996-17.234-94.996-38.494c0-21.255,42.531-38.489,94.996-38.489C729.437,939.875,771.972,957.109,771.972,978.364z"
			/>
		<path style="fill:#3D4956;" d="M642.22,729.861c0,0-28.809,106.967-28.809,112.958c0,5.99,68.371,81.454,68.371,81.454
			l11.781-42.359l-40.015-41.285l30.447-53.187l6.589-53.284l-15.206-21l-27.988,7.788L642.22,729.861z"/>
		<path style="fill:#F9BAA9;" d="M562.845,723.177c1.014-0.476,2.12-0.943,2.778-1.662c0.821-0.898-0.393-0.999-1.322-0.947
			c-2.586,0.143-5.09,0.908-7.703,0.953c-0.77,0.013-2.244-0.402-1.369-1.375c2.514-2.799,7.083-3.781,10.57-4.724
			c2.458-0.664,4.963-1.162,7.488-1.49c1.342-0.174,2.69-0.299,4.04-0.376c0.776-0.044,2.469,0.259,3.138-0.225
			c0.882-0.62,0,0,0.851-0.649l9.493,12.914c-1.264,1.837-2.849,3.463-4.494,5.063c-3.943,3.834-6.267,4.891-11.33,6.47
			c-3.028,0.944-4.851,2.943-7.19,5.092c-2.33,2.142-2.429,5.088-5.556,6.193c-3.339,1.18-9.693-4.812-9.754-11.81
			c-0.032-3.626,2.351-6.883,4.819-9.321c1.305-1.29,2.751-2.443,4.289-3.443C561.959,723.602,562.393,723.388,562.845,723.177z"/>
		<path style="fill:#F9BAA9;" d="M628.237,644.439l17.27,15.909c-20.307,51.779-54.698,65.248-54.698,65.248l-6.523,0.761
			l-2.97-13.675C619.121,678.828,628.237,644.439,628.237,644.439z"/>
		<path style="fill:#555F8E;" d="M643.445,652.473l3.945-32.344l-6.825-24.795c0,0-9.082,28.248-17.132,51.083
			c0,0-13.151,37.999-44.918,63.093c0,0,5.124,11.928,16.14,19.28c0,0,38.591-25.912,50.851-56.835L643.445,652.473L643.445,652.473
			z"/>
		<path style="fill:#F9A4A9;" d="M691.466,570.961c0,0,0.299,6.441,2.097,13.479l-2.083,12.67l-21.75,11.592h-7.018l-1.948-8.237
			c0,0,2.696-17.074,1.048-23.214L691.466,570.961z"/>
		<path style="fill:#B54D50;" d="M690.354,954.688c0,0-0.566,13.462-7.456,17.056c-6.889,3.594-24.801,16.331-20.907,22.023
			c3.894,5.691,17.213,10.926,31.291,3.138c14.078-7.788,22.198-14.74,26.391-17.436c4.194-2.695,0.035-21.786-0.863-30.173
			C717.911,940.909,690.354,954.688,690.354,954.688z"/>
		<path style="fill:#3D4956;" d="M720.538,734.157c0,0-1.129,107.307-1.129,121.685c0,14.377,4.793,98.247,4.793,98.247
			s-5.392,11.981-39.538,5.392l-8.433-103.039l-0.852-83.976v-23.963L720.538,734.157z"/>
		<path style="fill:#ED5F61;" d="M656.937,597.293l-0.129-2.621l5.063-3.139c4.84,13.536,33.292-4.994,33.292-4.994l0.492,1.202
			l2.543-1.202l5.167,8.797l-8.886,102.246l-9.884,35.944c0,0-13.979,3.195-31.95-4.793l-5.254-133.397L656.937,597.293z"/>
		<path style="fill:#F9BAA9;" d="M699.556,563.117c0,0-3.431,23.739-26.383,25.116c-26.486,1.588-30.51-30.898-28.282-46.393
			c2.083-14.489,19.009-32.573,38.149-22.84C697.403,526.303,703.22,541.318,699.556,563.117z"/>
		<path style="fill:#ED5F61;" d="M736.713,607.167c0,0-12.09-13.163-43.15-22.726c0,0-17.525,33.598-25.894,54.264
			c0,0-6.297-25.209-5.54-50.265l-21.565,6.895c-3.529,60.567,2.254,144.138,2.254,144.138c2.017,1.586-0.835,5.255,1.253,6.235
			c3.136,1.473,11.274,3.965,11.203,0.501c-0.045-2.158-0.083-4.302-0.115-6.432l25.823,0.773c0.101,3.575,0.217,7.216,0.353,10.942
			c0.11,3.003,2.81,5.269,5.781,4.815c10.722-1.642,28.971,0.681,33.219-2.657C720.336,753.647,722.734,640.914,736.713,607.167z"/>
		<path style="fill:#B64D50;" d="M673.537,514.311c0,0,22.216-0.54,29.008,26.551c0,0,5.227,22.542-10.713,38.806
			c0,0-0.187-9.496-1.592-11.238c-1.405-1.743,3.151-7.478,2.392-11.051c-0.758-3.571-1.746-10.133-5.638-6.597l-1.377,1.621
			c-1.229,1.447-3.569,0.537-3.533-1.361c0.054-2.777-0.287-5.815-1.712-7.65c-3.156-4.059-18.236,10.326-35.511,8.36
			c0,0-4.531,0.043-4.489-6.655C640.372,545.096,643.998,510.378,673.537,514.311z"/>
		<path style="fill:#F9BAA9;" d="M701.255,757.422c0,0-7.467,8.682-10.027,12.542c-4.976,7.505-13.245,11.93-17.236,11.807
			c-3.992-0.123-10.444-2.979-11.588-5.811c-1.145-2.833,8.081-6.125,11.396-8.658c7.218-5.516,7.294-9.117,7.294-9.125
			c-0.005,0.205-3.204,1.439-3.437,1.552c-2.331,1.121-4.594,2.399-6.877,3.62c-0.183,0.097-0.382,0.198-0.587,0.165
			c-0.258-0.041-0.441-0.29-0.49-0.547c-0.621-3.276,3.271-7.285,5.943-8.379c2.732-1.119,17.22-13.056,17.22-13.056
			L701.255,757.422z"/>
		<path style="fill:#EE7661;" d="M686.87,741.532c0,0,6.047,15.609,16.495,22.296c0,0,71.949-71.699,33.349-156.661
			c0,0-17.527,8.373-17.375,41.229C719.338,648.396,722.537,701.024,686.87,741.532z"/>
	</g>
	<g>
		<g>
			<path style="fill:#F9CB69;" d="M534.745,719.719v21.803c0,24.145,35.219,43.714,78.665,43.714s78.666-19.57,78.666-43.714
				v-21.803H534.745z"/>
			<path style="fill:#F5A967;" d="M666.627,751.846v21.805c-7.354,3.764-15.984,6.748-25.513,8.744v-21.804
				C650.644,758.595,659.273,755.61,666.627,751.846z"/>
			<path style="fill:#F5A967;" d="M626.514,751.199h1.734c1.283,0,2.334,1.271,2.334,2.825v30.156
				c-2.104,0.26-4.238,0.474-6.401,0.638v-30.795C624.18,752.47,625.23,751.199,626.514,751.199z"/>
			<path style="fill:#F5A967;" d="M610.235,751.199h1.734c1.284,0,2.334,1.271,2.334,2.825v31.201
				c-0.299,0.002-0.593,0.013-0.892,0.013c-1.854,0-3.687-0.049-5.51-0.119v-31.094C607.901,752.47,608.951,751.199,610.235,751.199
				z"/>
			<path style="fill:#F5A967;" d="M593.956,751.199h1.734c1.283,0,2.334,1.271,2.334,2.825v30.371
				c-2.17-0.239-4.301-0.534-6.401-0.87v-29.501C591.622,752.47,592.672,751.199,593.956,751.199z"/>
			<path style="fill:#F5A967;" d="M577.677,751.199h1.734c1.283,0,2.333,1.271,2.333,2.825v27.515
				c-2.187-0.535-4.324-1.121-6.401-1.76v-25.755C575.343,752.47,576.393,751.199,577.677,751.199z"/>
			<path style="fill:#F5A967;" d="M561.398,745.976h1.734c1.284,0,2.333,1.271,2.333,2.825v27.368
				c-2.233-0.955-4.367-1.978-6.401-3.058v-24.31C559.064,747.247,560.114,745.976,561.398,745.976z"/>
			<path style="fill:#F5A967;" d="M545.119,731.333h1.734c1.284,0,2.334,1.271,2.334,2.825v32.592
				c-2.404-1.885-4.552-3.878-6.401-5.969v-26.623C542.785,732.604,543.836,731.333,545.119,731.333z"/>
			<path style="fill:#F5A967;" d="M536.117,749.627c-0.887-2.628-1.372-5.334-1.372-8.105v-21.803h1.372V749.627z"/>
			<path style="fill:#F5A967;" d="M677.804,730.054h1.734c1.284,0,2.334,1.271,2.334,2.825v30.167
				c-1.902,1.865-4.043,3.643-6.401,5.323v-35.491C675.47,731.326,676.52,730.054,677.804,730.054z"/>
			<path style="fill:#F5A967;" d="M692.077,741.522c0,3.187-0.63,6.291-1.795,9.283v-30.839c0-0.085,0.015-0.164,0.021-0.247h1.774
				V741.522z"/>
			<path style="fill:#F9E268;" d="M692.077,719.719c0,24.141-35.221,43.714-78.666,43.714s-78.665-19.573-78.665-43.714
				c0-24.139,35.219-43.712,78.665-43.712S692.077,695.58,692.077,719.719z"/>
			<path style="fill:#F9CB69;" d="M671.807,719.719c0,17.921-26.145,32.45-58.396,32.45c-32.251,0-58.395-14.529-58.395-32.45
				c0-17.919,26.144-32.448,58.395-32.448C645.662,687.271,671.807,701.8,671.807,719.719z"/>
			<path style="fill:#F5A967;" d="M613.411,692.759c-30.586,0-55.663,13.071-58.172,29.704c-0.137-0.905-0.223-1.818-0.223-2.744
				c0-17.919,26.144-32.449,58.395-32.449c32.251,0,58.396,14.53,58.396,32.449c0,0.925-0.086,1.839-0.223,2.744
				C669.075,705.83,643.997,692.759,613.411,692.759z"/>
		</g>
		<g>
			<path style="fill:#F5A967;" d="M581.148,709.386l4.46,2.592c-4.169,2.69-7.536,5.885-10.099,9.584l13.375,3.187
				c2.565-3.879,5.711-6.894,9.436-9.045c1.775-1.025,3.234-1.62,4.386-1.785c1.151-0.167,2.142-0.008,2.979,0.479
				c0.728,0.423,1.07,0.922,1.022,1.498c-0.047,0.576-0.426,1.405-1.125,2.487c-0.703,1.081-1.809,2.506-3.325,4.273
				c-3.003,3.622-4.473,6.622-4.41,8.996c0.065,2.376,1.738,4.516,5.023,6.424c3.701,2.151,7.888,3.216,12.563,3.198
				c4.673-0.02,9.548-1.174,14.625-3.466l6.377,3.706l6.884-3.975l-6.179-3.591c4.634-2.932,8.236-6.261,10.797-9.985l-10.972-6.376
				c-1.27,2.239-2.981,4.484-5.128,6.73c-2.144,2.247-4.359,4.029-6.644,5.348c-1.885,1.088-3.488,1.755-4.818,1.998
				c-1.327,0.242-2.521,0.057-3.579-0.558c-0.725-0.421-1.025-0.963-0.901-1.622c0.126-0.66,0.607-1.601,1.443-2.825
				c0.834-1.222,2.054-2.818,3.654-4.79c1.781-2.227,2.896-4.215,3.334-5.962c0.44-1.749,0.259-3.312-0.553-4.697
				c-0.809-1.382-2.403-2.764-4.782-4.147c-3.636-2.113-7.654-3.086-12.053-2.92c-4.4,0.166-9.192,1.466-14.377,3.899l-4.528-2.631
				L581.148,709.386z"/>
		</g>
	</g>
	<g>
		<g>
			<path style="fill:#F9CB69;" d="M526.925,690.501v21.803c0,24.145,35.219,43.714,78.665,43.714
				c43.446,0,78.666-19.57,78.666-43.714v-21.803H526.925z"/>
			<path style="fill:#F5A967;" d="M658.807,722.628v21.805c-7.354,3.764-15.984,6.748-25.514,8.744v-21.804
				C642.824,729.377,651.453,726.392,658.807,722.628z"/>
			<path style="fill:#F5A967;" d="M618.693,721.981h1.734c1.283,0,2.334,1.271,2.334,2.825v30.156
				c-2.104,0.26-4.238,0.474-6.401,0.638v-30.794C616.359,723.252,617.409,721.981,618.693,721.981z"/>
			<path style="fill:#F5A967;" d="M602.414,721.981h1.734c1.284,0,2.334,1.271,2.334,2.825v31.2
				c-0.298,0.001-0.593,0.012-0.892,0.012c-1.854,0-3.687-0.049-5.51-0.119v-31.094C600.08,723.252,601.13,721.981,602.414,721.981z
				"/>
			<path style="fill:#F5A967;" d="M586.135,721.981h1.734c1.283,0,2.333,1.271,2.333,2.825v30.371
				c-2.169-0.239-4.3-0.534-6.401-0.87v-29.501C583.802,723.252,584.852,721.981,586.135,721.981z"/>
			<path style="fill:#F5A967;" d="M569.856,721.981h1.734c1.283,0,2.334,1.271,2.334,2.825v27.515
				c-2.187-0.535-4.324-1.121-6.401-1.76v-25.755C567.523,723.252,568.573,721.981,569.856,721.981z"/>
			<path style="fill:#F5A967;" d="M553.578,716.758h1.734c1.284,0,2.333,1.271,2.333,2.825v27.368
				c-2.233-0.956-4.367-1.978-6.401-3.058v-24.31C551.244,718.029,552.294,716.758,553.578,716.758z"/>
			<path style="fill:#F5A967;" d="M537.298,702.115h1.734c1.284,0,2.334,1.271,2.334,2.825v32.592
				c-2.404-1.885-4.552-3.878-6.401-5.969V704.94C534.965,703.386,536.015,702.115,537.298,702.115z"/>
			<path style="fill:#F5A967;" d="M528.297,720.409c-0.887-2.628-1.372-5.334-1.372-8.105v-21.803h1.372V720.409z"/>
			<path style="fill:#F5A967;" d="M669.983,700.836h1.734c1.284,0,2.334,1.271,2.334,2.825v30.167
				c-1.902,1.865-4.043,3.643-6.401,5.323v-35.491C667.65,702.107,668.7,700.836,669.983,700.836z"/>
			<path style="fill:#F5A967;" d="M684.257,712.304c0,3.187-0.63,6.291-1.795,9.283v-30.839c0-0.085,0.015-0.164,0.021-0.247h1.774
				V712.304z"/>
			<path style="fill:#F9E268;" d="M684.257,690.501c0,24.141-35.22,43.714-78.666,43.714c-43.446,0-78.665-19.572-78.665-43.714
				c0-24.139,35.219-43.712,78.665-43.712C649.036,646.789,684.257,666.362,684.257,690.501z"/>
			<path style="fill:#F9CB69;" d="M663.986,690.502c0,17.921-26.145,32.45-58.396,32.45c-32.251,0-58.395-14.529-58.395-32.45
				c0-17.919,26.144-32.448,58.395-32.448C637.841,658.053,663.986,672.582,663.986,690.502z"/>
			<path style="fill:#F5A967;" d="M605.59,663.541c-30.586,0-55.663,13.071-58.172,29.705c-0.137-0.905-0.223-1.818-0.223-2.744
				c0-17.919,26.144-32.449,58.395-32.449c32.251,0,58.396,14.53,58.396,32.449c0,0.925-0.086,1.839-0.223,2.744
				C661.254,676.612,636.177,663.541,605.59,663.541z"/>
		</g>
		<g>
			<path style="fill:#F5A967;" d="M573.328,680.168l4.46,2.591c-4.169,2.69-7.536,5.885-10.099,9.584l13.374,3.187
				c2.565-3.879,5.711-6.894,9.436-9.045c1.774-1.024,3.234-1.62,4.385-1.785c1.151-0.168,2.142-0.008,2.979,0.479
				c0.728,0.423,1.07,0.922,1.022,1.498c-0.047,0.576-0.426,1.405-1.125,2.487c-0.703,1.081-1.809,2.506-3.325,4.273
				c-3.003,3.622-4.473,6.622-4.41,8.996c0.065,2.375,1.738,4.516,5.023,6.424c3.701,2.151,7.888,3.216,12.563,3.198
				c4.673-0.019,9.548-1.174,14.625-3.466l6.377,3.706l6.884-3.975l-6.179-3.591c4.634-2.932,8.236-6.261,10.798-9.985
				l-10.972-6.376c-1.27,2.239-2.981,4.484-5.128,6.73c-2.144,2.247-4.359,4.029-6.644,5.348c-1.885,1.088-3.488,1.755-4.818,1.998
				c-1.327,0.242-2.521,0.057-3.579-0.558c-0.725-0.421-1.025-0.962-0.901-1.622c0.126-0.66,0.607-1.6,1.443-2.825
				c0.834-1.222,2.053-2.818,3.654-4.79c1.781-2.227,2.897-4.215,3.334-5.962c0.44-1.749,0.259-3.312-0.553-4.697
				c-0.809-1.383-2.403-2.764-4.782-4.147c-3.636-2.113-7.653-3.086-12.053-2.92c-4.4,0.167-9.192,1.466-14.377,3.899l-4.528-2.631
				L573.328,680.168z"/>
		</g>
	</g>
	<g>
		<g>
			<path style="fill:#F9CB69;" d="M544.095,662.489v21.803c0,24.145,35.219,43.714,78.665,43.714
				c43.446,0,78.666-19.57,78.666-43.714v-21.803H544.095z"/>
			<path style="fill:#F5A967;" d="M675.976,694.615v21.804c-7.354,3.764-15.984,6.748-25.513,8.744v-21.804
				C659.994,701.364,668.622,698.379,675.976,694.615z"/>
			<path style="fill:#F5A967;" d="M635.863,693.968h1.734c1.283,0,2.334,1.271,2.334,2.825v30.156
				c-2.104,0.26-4.238,0.474-6.401,0.639v-30.795C633.529,695.239,634.579,693.968,635.863,693.968z"/>
			<path style="fill:#F5A967;" d="M619.584,693.968h1.734c1.284,0,2.334,1.271,2.334,2.825v31.201
				c-0.299,0.002-0.593,0.012-0.892,0.012c-1.854,0-3.688-0.049-5.51-0.119v-31.094C617.25,695.239,618.3,693.968,619.584,693.968z"
				/>
			<path style="fill:#F5A967;" d="M603.305,693.968h1.734c1.283,0,2.333,1.271,2.333,2.825v30.371
				c-2.169-0.239-4.301-0.534-6.401-0.87v-29.501C600.971,695.239,602.022,693.968,603.305,693.968z"/>
			<path style="fill:#F5A967;" d="M587.026,693.968h1.734c1.283,0,2.333,1.271,2.333,2.825v27.515
				c-2.187-0.535-4.324-1.121-6.401-1.76v-25.755C584.692,695.239,585.742,693.968,587.026,693.968z"/>
			<path style="fill:#F5A967;" d="M570.747,688.745h1.734c1.284,0,2.333,1.271,2.333,2.825v27.368
				c-2.233-0.955-4.367-1.978-6.401-3.058v-24.31C568.414,690.016,569.464,688.745,570.747,688.745z"/>
			<path style="fill:#F5A967;" d="M554.468,674.103h1.734c1.284,0,2.334,1.271,2.334,2.825v32.592
				c-2.404-1.885-4.552-3.878-6.401-5.969v-26.623C552.135,675.374,553.185,674.103,554.468,674.103z"/>
			<path style="fill:#F5A967;" d="M545.466,692.396c-0.887-2.628-1.372-5.334-1.372-8.105v-21.803h1.372V692.396z"/>
			<path style="fill:#F5A967;" d="M687.153,672.824h1.734c1.284,0,2.334,1.271,2.334,2.825v30.167
				c-1.902,1.865-4.043,3.643-6.401,5.323v-35.491C684.819,674.095,685.87,672.824,687.153,672.824z"/>
			<path style="fill:#F5A967;" d="M701.426,684.291c0,3.187-0.63,6.291-1.795,9.284v-30.839c0-0.085,0.015-0.164,0.021-0.247h1.774
				V684.291z"/>
			<path style="fill:#F9E268;" d="M701.426,662.489c0,24.142-35.22,43.714-78.666,43.714c-43.446,0-78.665-19.572-78.665-43.714
				c0-24.139,35.219-43.712,78.665-43.712C666.206,618.777,701.426,638.349,701.426,662.489z"/>
			<path style="fill:#F9CB69;" d="M681.156,662.489c0,17.921-26.145,32.45-58.396,32.45c-32.251,0-58.395-14.529-58.395-32.45
				c0-17.919,26.144-32.448,58.395-32.448C655.011,630.04,681.156,644.57,681.156,662.489z"/>
			<path style="fill:#F5A967;" d="M622.76,635.528c-30.586,0-55.663,13.071-58.172,29.704c-0.137-0.905-0.223-1.818-0.223-2.744
				c0-17.919,26.144-32.449,58.395-32.449c32.251,0,58.396,14.53,58.396,32.449c0,0.925-0.086,1.839-0.223,2.744
				C678.424,648.599,653.347,635.528,622.76,635.528z"/>
		</g>
		<g>
			<path style="fill:#F5A967;" d="M590.498,652.156l4.46,2.592c-4.169,2.69-7.536,5.885-10.099,9.584l13.374,3.187
				c2.565-3.879,5.711-6.894,9.436-9.045c1.775-1.025,3.234-1.621,4.386-1.785c1.151-0.168,2.142-0.008,2.979,0.479
				c0.728,0.423,1.07,0.922,1.022,1.498c-0.047,0.576-0.426,1.405-1.125,2.487c-0.703,1.081-1.809,2.506-3.325,4.273
				c-3.003,3.622-4.473,6.622-4.41,8.996c0.065,2.376,1.738,4.516,5.023,6.424c3.701,2.151,7.888,3.216,12.563,3.198
				c4.673-0.019,9.548-1.174,14.625-3.466l6.377,3.706l6.884-3.975l-6.179-3.591c4.634-2.932,8.236-6.261,10.798-9.985
				l-10.972-6.376c-1.27,2.24-2.981,4.484-5.128,6.73c-2.144,2.247-4.359,4.029-6.644,5.348c-1.885,1.088-3.487,1.755-4.817,1.998
				c-1.327,0.242-2.521,0.057-3.579-0.558c-0.725-0.422-1.025-0.963-0.901-1.622c0.126-0.66,0.607-1.6,1.443-2.825
				c0.834-1.222,2.053-2.818,3.654-4.79c1.781-2.227,2.896-4.215,3.334-5.962c0.44-1.749,0.259-3.312-0.553-4.697
				c-0.809-1.382-2.403-2.764-4.782-4.147c-3.636-2.113-7.653-3.086-12.053-2.92c-4.4,0.166-9.192,1.466-14.377,3.899l-4.528-2.631
				L590.498,652.156z"/>
		</g>
	</g>
	<g>
		<g>
			<path style="fill:#F9CB69;" d="M526.619,633.689v21.803c0,24.145,35.219,43.714,78.665,43.714
				c43.446,0,78.666-19.57,78.666-43.714v-21.803H526.619z"/>
			<path style="fill:#F5A967;" d="M658.5,665.816v21.805c-7.354,3.764-15.984,6.748-25.514,8.744v-21.804
				C642.518,672.565,651.146,669.58,658.5,665.816z"/>
			<path style="fill:#F5A967;" d="M618.387,665.169h1.734c1.283,0,2.334,1.271,2.334,2.825v30.156
				c-2.104,0.26-4.238,0.474-6.401,0.639v-30.795C616.053,666.44,617.103,665.169,618.387,665.169z"/>
			<path style="fill:#F5A967;" d="M602.108,665.169h1.734c1.284,0,2.334,1.271,2.334,2.825v31.201
				c-0.299,0.001-0.593,0.012-0.892,0.012c-1.854,0-3.687-0.049-5.51-0.119v-31.094C599.774,666.44,600.824,665.169,602.108,665.169
				z"/>
			<path style="fill:#F5A967;" d="M585.829,665.169h1.734c1.283,0,2.333,1.271,2.333,2.825v30.371
				c-2.169-0.239-4.3-0.534-6.401-0.87v-29.501C583.495,666.44,584.546,665.169,585.829,665.169z"/>
			<path style="fill:#F5A967;" d="M569.55,665.169h1.734c1.283,0,2.334,1.271,2.334,2.825v27.515
				c-2.187-0.535-4.324-1.121-6.401-1.76v-25.755C567.216,666.44,568.266,665.169,569.55,665.169z"/>
			<path style="fill:#F5A967;" d="M553.271,659.946h1.734c1.283,0,2.333,1.271,2.333,2.825v27.368
				c-2.233-0.955-4.367-1.978-6.401-3.058v-24.31C550.938,661.217,551.988,659.946,553.271,659.946z"/>
			<path style="fill:#F5A967;" d="M536.992,645.303h1.734c1.284,0,2.334,1.271,2.334,2.825v32.592
				c-2.404-1.885-4.552-3.878-6.401-5.969v-26.623C534.659,646.574,535.709,645.303,536.992,645.303z"/>
			<path style="fill:#F5A967;" d="M527.99,663.597c-0.887-2.628-1.372-5.334-1.372-8.105v-21.803h1.372V663.597z"/>
			<path style="fill:#F5A967;" d="M669.677,644.024h1.734c1.284,0,2.334,1.271,2.334,2.825v30.168
				c-1.902,1.865-4.043,3.643-6.401,5.323v-35.491C667.343,645.295,668.394,644.024,669.677,644.024z"/>
			<path style="fill:#F5A967;" d="M683.95,655.492c0,3.187-0.63,6.291-1.795,9.283v-30.839c0-0.085,0.015-0.164,0.021-0.247h1.774
				V655.492z"/>
			<path style="fill:#F9E268;" d="M683.95,633.689c0,24.141-35.22,43.714-78.666,43.714c-43.446,0-78.665-19.572-78.665-43.714
				c0-24.139,35.219-43.712,78.665-43.712C648.73,589.977,683.95,609.55,683.95,633.689z"/>
			<path style="fill:#F9CB69;" d="M663.68,633.689c0,17.921-26.145,32.45-58.396,32.45c-32.251,0-58.395-14.529-58.395-32.45
				c0-17.919,26.144-32.448,58.395-32.448C637.535,601.241,663.68,615.77,663.68,633.689z"/>
			<path style="fill:#F5A967;" d="M605.284,606.729c-30.586,0-55.663,13.071-58.172,29.705c-0.137-0.905-0.223-1.818-0.223-2.744
				c0-17.919,26.144-32.449,58.395-32.449c32.251,0,58.396,14.53,58.396,32.449c0,0.925-0.086,1.839-0.223,2.744
				C660.948,619.799,635.87,606.729,605.284,606.729z"/>
		</g>
		<g>
			<path style="fill:#F5A967;" d="M573.022,623.356l4.46,2.592c-4.169,2.69-7.536,5.885-10.099,9.584l13.375,3.187
				c2.565-3.879,5.711-6.894,9.436-9.045c1.774-1.025,3.234-1.62,4.385-1.785c1.151-0.168,2.142-0.008,2.979,0.479
				c0.728,0.423,1.07,0.922,1.022,1.498c-0.047,0.576-0.426,1.405-1.125,2.487c-0.703,1.081-1.809,2.506-3.325,4.273
				c-3.003,3.622-4.473,6.622-4.41,8.996c0.065,2.375,1.738,4.516,5.023,6.424c3.701,2.151,7.887,3.216,12.563,3.198
				c4.673-0.019,9.548-1.174,14.625-3.466l6.377,3.706l6.884-3.975l-6.179-3.591c4.634-2.932,8.236-6.261,10.798-9.985
				l-10.972-6.376c-1.27,2.239-2.981,4.484-5.128,6.729c-2.144,2.247-4.359,4.029-6.644,5.348c-1.885,1.088-3.488,1.755-4.818,1.998
				c-1.327,0.242-2.521,0.057-3.579-0.558c-0.725-0.422-1.025-0.962-0.901-1.622c0.126-0.66,0.607-1.6,1.443-2.825
				c0.834-1.222,2.053-2.818,3.654-4.79c1.781-2.227,2.896-4.215,3.334-5.962c0.44-1.749,0.259-3.312-0.553-4.697
				c-0.809-1.383-2.403-2.764-4.782-4.147c-3.636-2.113-7.653-3.086-12.053-2.92c-4.4,0.167-9.192,1.466-14.377,3.899l-4.528-2.631
				L573.022,623.356z"/>
		</g>
	</g>
</g>
<g>
	<path style="opacity:0.08;fill:#2C788F;" d="M1358,954.301c0,19.602-39.22,35.492-87.591,35.492
		c-48.376,0-87.587-15.89-87.587-35.492c0-19.594,39.211-35.488,87.587-35.488C1318.78,918.813,1358,934.707,1358,954.301z"/>
	<g>
		<path style="fill:#F9BAA9;" d="M1240.238,590.733c0,0-58.285-20.622-60.219-87.365c0,0,2.073-3.937,1.809-7.36
			c-0.151-1.952-1.809-8.441-1.415-11.207c0.306-2.137,2.027-6.044,2.792-7.708c0.243-0.527,0.375-1.116,0.239-1.68
			c-1.039-4.336-7.725-4.283-12.201-3.304c-2.701,0.591-4.974,2.547-5.821,5.18c-2.569,7.984-2.28,15.533-2.28,15.533
			c-0.744-1.289-1.934-2.181-2.677-7.434c-0.151-1.069-0.761-1.918-1.807-2.25c-0.594-0.188-2.667-0.703-2.933,0.182
			c-0.048,0.164-0.026,0.339-0.002,0.508c0.345,2.467,0.679,4.928,0.808,7.418c0.307,5.931,6.667,12.899,6.667,12.899
			s-4.906,75.17,76.206,125.887C1239.405,630.032,1255.162,603.843,1240.238,590.733z"/>
		<path style="fill:#F9BAA9;" d="M1312.681,588.557c0,0-45.014-30.441-35.498-90.507c0,0,2.494-0.723,4.075-3.883
			c1.58-3.16,4.035-10.009,4.981-11.751c0,0-2.768-2.224-4.611,0.546c-1.431,2.152-2.72,5.026-4.361,6.329
			c-0.17-2.083-0.82-5.174-0.188-7.385c0.582-2.03,2.757-6.783,3.733-8.296c0.31-0.479,0.516-1.033,0.456-1.596
			c-0.465-4.329-6.751-6.465-11.317-6.087c-2.755,0.229-5.264,1.832-6.447,4.273c-3.588,7.4-4.286,14.745-4.286,14.745
			s-0.31,4.944,1.053,10.861c-0.091,0.298-20.726,68.438,44.76,133.237C1305.032,629.042,1324.659,603.049,1312.681,588.557z"/>
		<path style="fill:#F27A5A;" d="M1313.87,587.599c0,0-14.602-15.36-20.746-21.026l-17.093,6.097l18.92,19.487L1313.87,587.599z"/>
		<path style="fill:#5874C0;" d="M1288.319,937.041c2.549,0.709,4.968,1.859,7.226,3.302c6.11,3.905,9.937,0,9.937,0l21.323,1.301
			c2.518,3.04,1.604,26.256,1.604,26.256c-5.456,2.662-12.69,2.547-18.565,2.008c-13.177-1.212-27.512-8.685-37.567-17.343
			c-0.291-0.25-0.091-2.164-0.087-2.564c0.007-0.932,0.056-1.864,0.163-2.79c0.21-1.822,0.63-3.642,1.412-5.309
			c1.763-3.758,5.041-5.712,9.19-5.648C1284.797,936.281,1286.589,936.56,1288.319,937.041z"/>
		<path style="fill:#5874C0;" d="M1217.861,936.377c3.07,0.898,6.04,2.252,8.724,3.966c6.115,3.905,9.937,0,9.937,0l21.322,1.3
			c2.523,3.04,1.605,26.256,1.605,26.256c-5.456,2.662-12.69,2.547-18.566,2.008c-13.694-1.259-26.116-8.143-36.407-17.319
			c-0.722-0.644-1.379-1.348-1.988-2.08C1204.06,934.202,1215.146,935.747,1217.861,936.377z"/>
		<path style="fill:#58549D;" d="M1203.17,947.296c10.798,9.627,23.831,16.849,38.198,18.171c5.72,0.525,12.646,0.635,18.192-1.578
			c-0.048,2.402-0.11,4.011-0.11,4.011c-5.456,2.662-12.69,2.547-18.566,2.008c-13.694-1.259-26.116-8.143-36.407-17.319
			c-0.723-0.645-1.379-1.348-1.988-2.08c0.119-1.234,0.308-2.335,0.528-3.373C1203.072,947.186,1203.114,947.246,1203.17,947.296z"
			/>
		<path style="fill:#58549D;" d="M1272.28,948.445c10.287,8.624,24.609,15.982,37.825,17.197c5.808,0.533,12.892,0.635,18.414-1.791
			c-0.047,2.422-0.11,4.049-0.11,4.049c-5.456,2.662-12.69,2.547-18.565,2.008c-13.177-1.212-27.512-8.685-37.568-17.343
			c-0.291-0.25-0.09-2.164-0.087-2.564C1272.193,949.481,1272.247,948.963,1272.28,948.445z"/>
		<path style="fill:#485083;" d="M1311.401,709.66c0.19,83.687-1.259,83.853,4.294,130.754l13.693,103.217
			c0,0-13.559,5.046-35.462,3.289c-3.415-0.276-6.081-3.098-6.299-6.521l-23.891-229.035L1311.401,709.66z"/>
		<path style="fill:#485083;" d="M1272.45,704.541c0,0,6.131,7.012-0.362,33.395l-9.242,206.003c0,0-17.776,7.411-39.555,0
			l6.76-236.662L1272.45,704.541z"/>
		<path style="fill:#FF8E6C;" d="M1223.636,736.786c-0.094-5.621,5.495-64.485,5.495-64.485c0.835-37.749,8.473-81.568,8.473-81.568
			l26.954-6.07l29.753-3.325l12.743,3.473c5.555,0.564,9.962,4.452,10.727,9.464c1.09,7.127,1.58,14.295,1.379,21.487
			c-0.218,7.752-2.975,15.558-4.131,23.281c-4.473,29.964,1.658,68.535,3.954,98.424c0,0,0.181,2.287-2.983,4.444
			c-24.257,18.36-88.25,4.824-88.25,4.824C1222.192,745.979,1223.715,741.189,1223.636,736.786z"/>
		<path style="fill:#F9A4A9;" d="M1294.888,569.83c-0.979,1.024-2.003,1.963-3.09,2.761c-6.452,4.765-16.508,7.843-24.17,9.678
			c-1.222,0.288-2.543,0.535-3.892,0.732l0.823,1.663c7.9,2.699,15.286,5.143,20.919,3.724c4.197-1.058,8.608-2.753,8.855-7.415
			l0.572-11.147L1294.888,569.83z"/>
		<path style="fill:#F9BAA9;" d="M1292.946,517.935c-15.302-6.683-32.857-0.281-40.484,14.394
			c-7.037,13.54-6.916,32.12,0.793,45.413c4.448,7.669,18.267,5.288,25.311,3.817c9.788-2.044,19.737-6.758,25-15.659
			c5.79-9.793,7.158-23.033,3.182-33.726C1304.223,525.386,1299.108,520.627,1292.946,517.935z"/>
		<path style="fill:#494865;" d="M1276.71,515.538c5.346-0.633,10.924,0.077,16.236,2.397c6.162,2.691,11.277,7.451,13.801,14.238
			c3.977,10.693,2.607,23.933-3.182,33.726c-5.263,8.902-15.211,13.615-25,15.659c-3.068,0.641-7.419,1.409-11.723,1.489
			l-2.176-10.442c3.555,0,5.749-4.345,6.408-9.349c0.658-5.003-1.931-6.649-4.169-6.781c-2.239-0.131-2.765,10.073-2.765,10.073
			l-3.292-1.053c0.462-7.05-0.608-16.691-0.608-16.691s-8.302,0.978-15.675-6.527
			C1244.564,542.278,1244.999,517.853,1276.71,515.538z"/>
		<path style="fill:#F27A5A;" d="M1240.238,590.733c0,0,9.698,2.565,11.146,18.102c0,0-1.427,22.999-17.106,26.073
			c0,0-29.637-21.684-46.315-40.118c0,0,9.217-20.354,20.014-28.218C1207.976,566.573,1227.815,584.959,1240.238,590.733z"/>
		<path style="fill:#5E617F;" d="M1180.018,503.368c0,0-5.066-2.001-16.82,0.777c0,0-0.194,3.158,0.167,8.552
			c3.101-1.187,8.67-2.47,17.12-2.085C1180.264,508.254,1180.09,505.853,1180.018,503.368z"/>
	</g>
	<g>
		<g>
			<path style="fill:#F9CB69;" d="M1145.51,451.713v20.461c0,22.658,33.052,41.024,73.823,41.024
				c40.772,0,73.824-18.365,73.824-41.024v-20.461H1145.51z"/>
			<path style="fill:#F5A967;" d="M1269.274,481.862v20.463c-6.901,3.532-15,6.333-23.943,8.206v-20.462
				C1254.275,488.195,1262.373,485.394,1269.274,481.862z"/>
			<path style="fill:#F5A967;" d="M1231.629,481.255h1.627c1.204,0,2.19,1.193,2.19,2.651v28.3
				c-1.974,0.244-3.977,0.445-6.007,0.599v-28.899C1229.439,482.448,1230.425,481.255,1231.629,481.255z"/>
			<path style="fill:#F5A967;" d="M1216.352,481.255h1.627c1.205,0,2.19,1.193,2.19,2.651v29.28
				c-0.28,0.001-0.556,0.012-0.837,0.012c-1.74,0-3.46-0.046-5.171-0.112v-29.18
				C1214.162,482.448,1215.148,481.255,1216.352,481.255z"/>
			<path style="fill:#F5A967;" d="M1201.076,481.255h1.627c1.204,0,2.19,1.193,2.19,2.651v28.502
				c-2.036-0.224-4.036-0.502-6.007-0.817v-27.685C1198.885,482.448,1199.871,481.255,1201.076,481.255z"/>
			<path style="fill:#F5A967;" d="M1185.798,481.255h1.627c1.204,0,2.19,1.193,2.19,2.651v25.822
				c-2.052-0.502-4.058-1.052-6.007-1.652v-24.17C1183.608,482.448,1184.594,481.255,1185.798,481.255z"/>
			<path style="fill:#F5A967;" d="M1170.522,476.353h1.627c1.205,0,2.19,1.193,2.19,2.651v25.684
				c-2.095-0.897-4.098-1.856-6.007-2.87v-22.814C1168.332,477.546,1169.317,476.353,1170.522,476.353z"/>
			<path style="fill:#F5A967;" d="M1155.245,462.612h1.627c1.205,0,2.19,1.193,2.19,2.651v30.586
				c-2.256-1.769-4.272-3.639-6.007-5.602v-24.984C1153.055,463.804,1154.04,462.612,1155.245,462.612z"/>
			<path style="fill:#F5A967;" d="M1146.797,479.78c-0.833-2.466-1.287-5.006-1.287-7.606v-20.461h1.287V479.78z"/>
			<path style="fill:#F5A967;" d="M1279.763,461.411h1.627c1.205,0,2.19,1.193,2.19,2.651v28.311
				c-1.785,1.75-3.794,3.418-6.007,4.996v-33.306C1277.573,462.604,1278.558,461.411,1279.763,461.411z"/>
			<path style="fill:#F5A967;" d="M1293.157,472.173c0,2.991-0.591,5.903-1.685,8.712v-28.941c0-0.08,0.014-0.154,0.02-0.232h1.665
				V472.173z"/>
			<path style="fill:#F9E268;" d="M1293.157,451.713c0,22.655-33.053,41.023-73.824,41.023c-40.772,0-73.823-18.368-73.823-41.023
				c0-22.654,33.052-41.022,73.823-41.022C1260.105,410.691,1293.157,429.059,1293.157,451.713z"/>
			<path style="fill:#F9CB69;" d="M1274.135,451.713c0,16.818-24.536,30.453-54.802,30.453c-30.266,0-54.801-13.635-54.801-30.453
				c0-16.816,24.535-30.451,54.801-30.451C1249.599,421.262,1274.135,434.897,1274.135,451.713z"/>
			<path style="fill:#F5A967;" d="M1219.333,426.411c-28.703,0-52.237,12.266-54.592,27.876c-0.128-0.85-0.209-1.706-0.209-2.575
				c0-16.816,24.535-30.452,54.801-30.452c30.266,0,54.802,13.635,54.802,30.452c0,0.869-0.081,1.725-0.21,2.575
				C1271.571,438.678,1248.037,426.411,1219.333,426.411z"/>
		</g>
		<g>
			<path style="fill:#F5A967;" d="M1189.057,442.016l4.185,2.432c-3.912,2.524-7.073,5.523-9.477,8.995l12.551,2.991
				c2.407-3.641,5.359-6.47,8.855-8.488c1.665-0.962,3.035-1.521,4.116-1.675c1.08-0.157,2.01-0.007,2.796,0.449
				c0.683,0.397,1.004,0.865,0.959,1.406c-0.044,0.54-0.399,1.319-1.056,2.334c-0.66,1.014-1.698,2.352-3.12,4.01
				c-2.818,3.399-4.197,6.214-4.139,8.443c0.061,2.229,1.631,4.238,4.714,6.029c3.473,2.018,7.402,3.018,11.79,3.001
				c4.385-0.018,8.96-1.102,13.725-3.253l5.984,3.478l6.461-3.73l-5.798-3.37c4.349-2.751,7.729-5.876,10.133-9.371l-10.297-5.984
				c-1.192,2.102-2.797,4.208-4.812,6.315c-2.012,2.109-4.091,3.781-6.235,5.019c-1.769,1.021-3.273,1.647-4.521,1.875
				c-1.245,0.227-2.365,0.054-3.359-0.523c-0.681-0.396-0.962-0.903-0.846-1.522c0.119-0.619,0.569-1.502,1.354-2.651
				c0.783-1.147,1.927-2.645,3.429-4.496c1.672-2.09,2.718-3.956,3.129-5.595c0.413-1.641,0.243-3.109-0.519-4.408
				c-0.759-1.297-2.255-2.594-4.488-3.892c-3.412-1.983-7.182-2.896-11.311-2.74c-4.129,0.156-8.626,1.376-13.492,3.659
				l-4.249-2.469L1189.057,442.016z"/>
		</g>
	</g>
	<g>
		<g>
			<path style="fill:#F9CB69;" d="M1138.171,424.293v20.461c0,22.658,33.052,41.024,73.823,41.024s73.824-18.365,73.824-41.024
				v-20.461H1138.171z"/>
			<path style="fill:#F5A967;" d="M1261.935,454.442v20.462c-6.901,3.532-15,6.333-23.943,8.206v-20.462
				C1246.936,460.776,1255.034,457.974,1261.935,454.442z"/>
			<path style="fill:#F5A967;" d="M1224.29,453.835h1.627c1.205,0,2.19,1.193,2.19,2.651v28.3c-1.974,0.244-3.977,0.445-6.007,0.599
				v-28.899C1222.1,455.028,1223.086,453.835,1224.29,453.835z"/>
			<path style="fill:#F5A967;" d="M1209.013,453.835h1.627c1.204,0,2.19,1.193,2.19,2.651v29.28
				c-0.28,0.001-0.556,0.012-0.837,0.012c-1.74,0-3.46-0.046-5.171-0.112v-29.18
				C1206.823,455.028,1207.809,453.835,1209.013,453.835z"/>
			<path style="fill:#F5A967;" d="M1193.737,453.835h1.627c1.204,0,2.19,1.193,2.19,2.651v28.502
				c-2.036-0.225-4.036-0.502-6.007-0.817v-27.685C1191.547,455.028,1192.532,453.835,1193.737,453.835z"/>
			<path style="fill:#F5A967;" d="M1178.459,453.835h1.627c1.204,0,2.19,1.193,2.19,2.651v25.822
				c-2.052-0.502-4.058-1.052-6.007-1.652v-24.17C1176.269,455.028,1177.255,453.835,1178.459,453.835z"/>
			<path style="fill:#F5A967;" d="M1163.183,448.934h1.627c1.205,0,2.19,1.193,2.19,2.651v25.684
				c-2.095-0.897-4.098-1.856-6.007-2.87v-22.814C1160.993,450.126,1161.978,448.934,1163.183,448.934z"/>
			<path style="fill:#F5A967;" d="M1147.906,435.192h1.627c1.204,0,2.19,1.193,2.19,2.651v30.586
				c-2.256-1.769-4.272-3.639-6.007-5.601v-24.985C1145.716,436.385,1146.701,435.192,1147.906,435.192z"/>
			<path style="fill:#F5A967;" d="M1139.458,452.36c-0.833-2.466-1.287-5.006-1.287-7.606v-20.461h1.287V452.36z"/>
			<path style="fill:#F5A967;" d="M1272.424,433.992h1.627c1.205,0,2.19,1.193,2.19,2.651v28.311
				c-1.785,1.75-3.794,3.418-6.007,4.996v-33.306C1270.234,435.185,1271.219,433.992,1272.424,433.992z"/>
			<path style="fill:#F5A967;" d="M1285.818,444.754c0,2.991-0.591,5.903-1.685,8.712v-28.941c0-0.08,0.014-0.154,0.02-0.232h1.665
				V444.754z"/>
			<path style="fill:#F9E268;" d="M1285.818,424.293c0,22.656-33.053,41.023-73.824,41.023s-73.823-18.368-73.823-41.023
				c0-22.654,33.052-41.021,73.823-41.021S1285.818,401.639,1285.818,424.293z"/>
			<path style="fill:#F9CB69;" d="M1266.796,424.293c0,16.818-24.536,30.453-54.802,30.453c-30.266,0-54.801-13.635-54.801-30.453
				c0-16.816,24.535-30.451,54.801-30.451C1242.26,393.842,1266.796,407.477,1266.796,424.293z"/>
			<path style="fill:#F5A967;" d="M1211.994,398.992c-28.703,0-52.237,12.266-54.592,27.876c-0.128-0.85-0.209-1.707-0.209-2.575
				c0-16.816,24.535-30.452,54.801-30.452c30.266,0,54.802,13.635,54.802,30.452c0,0.869-0.081,1.726-0.21,2.575
				C1264.232,411.258,1240.698,398.992,1211.994,398.992z"/>
		</g>
		<g>
			<path style="fill:#F5A967;" d="M1181.718,414.596l4.185,2.432c-3.912,2.524-7.073,5.523-9.477,8.995l12.551,2.991
				c2.407-3.641,5.359-6.47,8.855-8.488c1.665-0.962,3.035-1.521,4.116-1.675c1.08-0.157,2.01-0.007,2.796,0.449
				c0.683,0.397,1.004,0.865,0.959,1.406c-0.045,0.54-0.399,1.319-1.056,2.334c-0.66,1.014-1.698,2.352-3.12,4.01
				c-2.818,3.399-4.197,6.214-4.139,8.443c0.061,2.229,1.631,4.238,4.714,6.029c3.473,2.019,7.402,3.018,11.79,3.001
				c4.385-0.018,8.96-1.102,13.725-3.253l5.984,3.478l6.461-3.73l-5.799-3.37c4.349-2.751,7.729-5.876,10.133-9.37l-10.297-5.984
				c-1.192,2.102-2.797,4.208-4.812,6.315c-2.012,2.109-4.091,3.781-6.235,5.019c-1.769,1.021-3.273,1.647-4.521,1.875
				c-1.245,0.227-2.365,0.053-3.359-0.523c-0.681-0.395-0.962-0.903-0.846-1.522c0.119-0.619,0.569-1.502,1.354-2.651
				c0.783-1.147,1.927-2.645,3.429-4.495c1.672-2.09,2.718-3.955,3.129-5.595c0.413-1.641,0.243-3.109-0.519-4.408
				c-0.759-1.297-2.255-2.594-4.488-3.892c-3.412-1.983-7.182-2.896-11.311-2.74c-4.129,0.156-8.626,1.376-13.492,3.659
				l-4.249-2.469L1181.718,414.596z"/>
		</g>
	</g>
	<g>
		<g>
			<path style="fill:#F9CB69;" d="M1154.284,398.004v20.461c0,22.658,33.052,41.024,73.823,41.024
				c40.772,0,73.824-18.365,73.824-41.024v-20.461H1154.284z"/>
			<path style="fill:#F5A967;" d="M1278.048,428.154v20.462c-6.901,3.533-15,6.333-23.943,8.206v-20.462
				C1263.049,434.487,1271.146,431.686,1278.048,428.154z"/>
			<path style="fill:#F5A967;" d="M1240.403,427.546h1.627c1.204,0,2.19,1.193,2.19,2.651v28.3
				c-1.974,0.244-3.977,0.445-6.007,0.599v-28.899C1238.213,428.739,1239.199,427.546,1240.403,427.546z"/>
			<path style="fill:#F5A967;" d="M1225.126,427.546h1.627c1.205,0,2.19,1.193,2.19,2.651v29.28
				c-0.28,0.002-0.556,0.012-0.837,0.012c-1.74,0-3.46-0.046-5.171-0.112v-29.18
				C1222.936,428.739,1223.921,427.546,1225.126,427.546z"/>
			<path style="fill:#F5A967;" d="M1209.849,427.546h1.627c1.204,0,2.19,1.193,2.19,2.651v28.502
				c-2.036-0.224-4.036-0.501-6.007-0.817v-27.685C1207.659,428.739,1208.645,427.546,1209.849,427.546z"/>
			<path style="fill:#F5A967;" d="M1194.572,427.546h1.627c1.204,0,2.19,1.193,2.19,2.651v25.822
				c-2.052-0.502-4.058-1.052-6.007-1.652v-24.17C1192.382,428.739,1193.368,427.546,1194.572,427.546z"/>
			<path style="fill:#F5A967;" d="M1179.295,422.645h1.627c1.205,0,2.19,1.193,2.19,2.651v25.684
				c-2.095-0.897-4.099-1.856-6.007-2.87v-22.814C1177.105,423.838,1178.091,422.645,1179.295,422.645z"/>
			<path style="fill:#F5A967;" d="M1164.018,408.903h1.627c1.205,0,2.19,1.193,2.19,2.651v30.586
				c-2.256-1.769-4.272-3.639-6.007-5.602v-24.984C1161.828,410.096,1162.814,408.903,1164.018,408.903z"/>
			<path style="fill:#F5A967;" d="M1155.571,426.071c-0.833-2.466-1.287-5.006-1.287-7.606v-20.461h1.287V426.071z"/>
			<path style="fill:#F5A967;" d="M1288.537,407.703h1.627c1.205,0,2.19,1.193,2.19,2.651v28.311
				c-1.785,1.75-3.794,3.418-6.007,4.996v-33.306C1286.347,408.896,1287.332,407.703,1288.537,407.703z"/>
			<path style="fill:#F5A967;" d="M1301.931,418.465c0,2.991-0.591,5.903-1.685,8.712v-28.941c0-0.08,0.014-0.154,0.02-0.232h1.665
				V418.465z"/>
			<path style="fill:#F9E268;" d="M1301.931,398.004c0,22.656-33.053,41.023-73.824,41.023c-40.772,0-73.823-18.368-73.823-41.023
				c0-22.653,33.052-41.021,73.823-41.021C1268.879,356.983,1301.931,375.351,1301.931,398.004z"/>
			<path style="fill:#F9CB69;" d="M1282.909,398.005c0,16.818-24.536,30.453-54.802,30.453c-30.266,0-54.801-13.635-54.801-30.453
				c0-16.816,24.535-30.451,54.801-30.451C1258.373,367.553,1282.909,381.188,1282.909,398.005z"/>
			<path style="fill:#F5A967;" d="M1228.107,372.703c-28.703,0-52.237,12.266-54.591,27.876c-0.128-0.85-0.209-1.707-0.209-2.575
				c0-16.816,24.535-30.452,54.801-30.452c30.266,0,54.802,13.635,54.802,30.452c0,0.869-0.081,1.725-0.209,2.575
				C1280.345,384.97,1256.811,372.703,1228.107,372.703z"/>
		</g>
		<g>
			<path style="fill:#F5A967;" d="M1197.831,388.307l4.185,2.432c-3.912,2.524-7.073,5.523-9.477,8.995l12.551,2.991
				c2.408-3.641,5.359-6.47,8.855-8.488c1.665-0.962,3.035-1.521,4.116-1.675c1.08-0.157,2.01-0.007,2.796,0.45
				c0.683,0.397,1.004,0.865,0.959,1.406c-0.045,0.54-0.4,1.319-1.056,2.334c-0.659,1.014-1.698,2.352-3.12,4.01
				c-2.818,3.399-4.197,6.214-4.139,8.443c0.061,2.229,1.631,4.238,4.714,6.029c3.473,2.018,7.402,3.018,11.79,3.001
				c4.385-0.018,8.96-1.102,13.724-3.253l5.984,3.478l6.461-3.73l-5.799-3.37c4.349-2.751,7.729-5.876,10.133-9.37l-10.297-5.984
				c-1.192,2.102-2.797,4.208-4.812,6.315c-2.012,2.109-4.091,3.781-6.235,5.019c-1.769,1.021-3.273,1.647-4.521,1.875
				c-1.245,0.227-2.365,0.054-3.359-0.523c-0.681-0.395-0.962-0.903-0.846-1.522c0.119-0.62,0.569-1.502,1.354-2.651
				c0.783-1.147,1.927-2.645,3.429-4.496c1.672-2.09,2.718-3.955,3.129-5.595c0.413-1.641,0.243-3.108-0.519-4.408
				c-0.759-1.297-2.255-2.594-4.488-3.892c-3.412-1.983-7.182-2.896-11.311-2.74c-4.129,0.156-8.626,1.376-13.492,3.659
				l-4.249-2.469L1197.831,388.307z"/>
		</g>
	</g>
	<g>
		<g>
			<path style="fill:#F9CB69;" d="M1137.883,370.977v20.461c0,22.658,33.052,41.024,73.823,41.024
				c40.772,0,73.824-18.365,73.824-41.024v-20.461H1137.883z"/>
			<path style="fill:#F5A967;" d="M1261.647,401.127v20.463c-6.901,3.532-15,6.333-23.943,8.206v-20.461
				C1246.648,407.46,1254.746,404.659,1261.647,401.127z"/>
			<path style="fill:#F5A967;" d="M1224.003,400.519h1.627c1.205,0,2.19,1.193,2.19,2.651v28.3
				c-1.974,0.244-3.977,0.445-6.007,0.599V403.17C1221.813,401.712,1222.798,400.519,1224.003,400.519z"/>
			<path style="fill:#F5A967;" d="M1208.726,400.519h1.627c1.205,0,2.19,1.193,2.19,2.651v29.28
				c-0.28,0.001-0.556,0.012-0.837,0.012c-1.74,0-3.461-0.046-5.171-0.112v-29.18
				C1206.536,401.712,1207.521,400.519,1208.726,400.519z"/>
			<path style="fill:#F5A967;" d="M1193.449,400.519h1.627c1.204,0,2.19,1.193,2.19,2.651v28.502
				c-2.036-0.224-4.036-0.502-6.007-0.817V403.17C1191.259,401.712,1192.245,400.519,1193.449,400.519z"/>
			<path style="fill:#F5A967;" d="M1178.172,400.519h1.627c1.204,0,2.19,1.193,2.19,2.651v25.821
				c-2.052-0.502-4.058-1.052-6.007-1.652v-24.17C1175.982,401.712,1176.967,400.519,1178.172,400.519z"/>
			<path style="fill:#F5A967;" d="M1162.895,395.618h1.627c1.205,0,2.19,1.193,2.19,2.651v25.684
				c-2.095-0.897-4.098-1.856-6.007-2.87v-22.814C1160.705,396.811,1161.691,395.618,1162.895,395.618z"/>
			<path style="fill:#F5A967;" d="M1147.618,381.876h1.627c1.205,0,2.19,1.193,2.19,2.651v30.586
				c-2.256-1.769-4.272-3.639-6.007-5.602v-24.985C1145.428,383.069,1146.414,381.876,1147.618,381.876z"/>
			<path style="fill:#F5A967;" d="M1139.17,399.044c-0.833-2.466-1.287-5.006-1.287-7.606v-20.461h1.287V399.044z"/>
			<path style="fill:#F5A967;" d="M1272.136,380.676h1.627c1.205,0,2.19,1.193,2.19,2.651v28.311
				c-1.785,1.75-3.794,3.418-6.007,4.996v-33.306C1269.946,381.869,1270.932,380.676,1272.136,380.676z"/>
			<path style="fill:#F5A967;" d="M1285.531,391.438c0,2.991-0.591,5.903-1.685,8.712v-28.941c0-0.08,0.014-0.154,0.02-0.232h1.665
				V391.438z"/>
			<path style="fill:#F9E268;" d="M1285.531,370.977c0,22.655-33.053,41.023-73.824,41.023c-40.772,0-73.823-18.368-73.823-41.023
				c0-22.654,33.052-41.022,73.823-41.022C1252.478,329.956,1285.531,348.324,1285.531,370.977z"/>
			<path style="fill:#F9CB69;" d="M1266.508,370.978c0,16.818-24.536,30.453-54.802,30.453s-54.801-13.635-54.801-30.453
				c0-16.816,24.535-30.451,54.801-30.451S1266.508,354.161,1266.508,370.978z"/>
			<path style="fill:#F5A967;" d="M1211.707,345.676c-28.703,0-52.237,12.266-54.592,27.876c-0.128-0.849-0.209-1.706-0.209-2.575
				c0-16.816,24.535-30.452,54.801-30.452c30.266,0,54.802,13.635,54.802,30.452c0,0.869-0.081,1.726-0.21,2.575
				C1263.944,357.943,1240.41,345.676,1211.707,345.676z"/>
		</g>
		<g>
			<path style="fill:#F5A967;" d="M1181.43,361.28l4.185,2.432c-3.912,2.524-7.073,5.523-9.477,8.995l12.551,2.991
				c2.408-3.641,5.359-6.47,8.855-8.488c1.665-0.961,3.035-1.521,4.115-1.675c1.08-0.157,2.01-0.007,2.796,0.449
				c0.683,0.397,1.004,0.865,0.959,1.406c-0.045,0.54-0.399,1.319-1.056,2.334c-0.66,1.014-1.698,2.352-3.12,4.01
				c-2.818,3.399-4.197,6.214-4.139,8.443c0.061,2.229,1.631,4.238,4.713,6.029c3.473,2.019,7.402,3.018,11.79,3.001
				c4.385-0.018,8.96-1.102,13.725-3.253l5.984,3.478l6.461-3.73l-5.798-3.37c4.349-2.751,7.729-5.876,10.133-9.371l-10.297-5.984
				c-1.192,2.102-2.797,4.208-4.812,6.315c-2.012,2.109-4.091,3.781-6.235,5.019c-1.769,1.021-3.273,1.647-4.521,1.875
				c-1.245,0.227-2.366,0.054-3.359-0.523c-0.681-0.396-0.962-0.903-0.846-1.522c0.119-0.619,0.569-1.502,1.354-2.651
				c0.783-1.147,1.927-2.645,3.429-4.496c1.672-2.09,2.718-3.956,3.129-5.595c0.413-1.641,0.243-3.109-0.519-4.408
				c-0.759-1.297-2.255-2.594-4.488-3.892c-3.412-1.983-7.182-2.896-11.311-2.74c-4.129,0.156-8.626,1.376-13.492,3.659
				l-4.249-2.469L1181.43,361.28z"/>
		</g>
	</g>
</g>
<g style="display:none;">
	<path style="display:inline;opacity:0.08;fill:#2C788F;" d="M792.509,951.183c0,17.708-39.92,32.063-89.156,32.063
		c-49.24,0-89.152-14.355-89.152-32.063c0-17.701,39.912-32.059,89.152-32.059C752.589,919.123,792.509,933.482,792.509,951.183z"/>
	<path style="display:inline;fill:#F9B9A8;" d="M784.342,490.423c-0.086,0.228-0.199,0.479-0.288,0.711l0.016-0.006
		c0,0,1.938,3.858,14.272,6.806c0.124-0.284,0.914-0.397,1.038-0.682c9.127-10.623,10.906-14.951,12.534-22.564
		c1.629-7.613,1.659-10.453-3.073-14.726c-4.731-4.272-8.66,1.434-8.66,1.434c-3.434,11.89-8.106,17.561-8.106,17.561
		s-2.073-2.038-0.513-7.641c1.56-5.602-2.065-5.204-2.065-5.204s-2.205,0.805-3.593,7.839
		C784.518,480.976,784.344,490.408,784.342,490.423z"/>
	<path style="display:inline;fill:#F9B9A8;" d="M590.164,501.394c0.086,0.229,0.199,0.48,0.288,0.711l-0.016-0.006
		c0,0-1.938,3.858-14.272,6.806c-0.124-0.284-0.914-0.397-1.038-0.682C566,497.6,564.22,493.272,562.592,485.66
		c-1.629-7.613-1.659-10.453,3.073-14.726c4.731-4.272,8.66,1.434,8.66,1.434c3.434,11.89,8.106,17.561,8.106,17.561
		s2.073-2.038,0.513-7.64c-1.56-5.602,2.065-5.204,2.065-5.204s2.205,0.805,3.593,7.839
		C589.989,491.946,590.163,501.378,590.164,501.394z"/>
	<path style="display:inline;fill:#B54D50;" d="M760.551,941.885c-4.082-3.422-19.367-9.458-21.207-10.813
		c-1.84-1.355-1.129-8.114-1.129-8.114l-26.548,0.13c-2.76,13.863,0.105,26.289,0.105,26.289
		c16.167,5.338,41.809,9.548,47.832,8.034C765.625,955.897,764.632,945.307,760.551,941.885z"/>
	<path style="display:inline;fill:#913A40;" d="M763.238,953.805c-28.249-0.169-46.495-6.383-52.166-8.636
		c0.342,2.629,0.7,4.209,0.7,4.209c16.168,5.338,41.81,9.546,47.832,8.033C761.477,956.941,762.604,955.544,763.238,953.805z"/>
	<path style="display:inline;fill:#B54D50;" d="M702.387,954.999c-3.757-3.773-18.44-11.156-20.151-12.67
		c-1.712-1.514-0.398-8.182-0.398-8.182l-26.452-2.252c-3.992,13.56-2.253,26.193-2.253,26.193
		c15.623,6.766,40.785,13.258,46.919,12.289C706.186,969.409,706.146,958.773,702.387,954.999z"/>
	<path style="display:inline;fill:#913A40;" d="M703.979,967.303c-26.364-2.342-45.07-10.211-51.15-13.087
		c0.109,2.416,0.305,3.872,0.305,3.872c15.623,6.766,40.785,13.258,46.919,12.289C701.904,970.086,703.185,968.904,703.979,967.303z
		"/>
	<path style="display:inline;fill:#F6A3A8;" d="M673.945,577.536c5.965-2.45,6.474-4.331,6.474-4.331
		c1.647-6.458,1.921-12.367,1.921-12.367l27.209,5.772c-0.553,2.058-0.569,5.457-0.376,8.936c1.155,0.17,2.092,0.008,2.092,0.008
		l4.447,5.126l1.631,12.311l-21.283,9.242l-17.34-9.109C678.72,593.124,667.979,579.986,673.945,577.536z"/>
	<path style="display:inline;fill:#485083;" d="M733.315,713.115c0,0,6.369,117.145,7.592,215.066c0,0-12.851,6.321-33.658,2.245
		c0,0-1.813-131.4-10.184-184.711l-7.051-19.695l3.701-12.182l36.751-9.546L733.315,713.115z"/>
	<path style="display:inline;fill:#485083;" d="M654.759,710.569c0,0,1.037,119.119,1.037,132.31
		c0,13.191-4.396,94.272-4.396,94.272s7.475,8.573,34.469,5.279l5.445-89.104l7.386-112.056l-2.507-17.541L654.759,710.569z"/>
	<path style="display:inline;fill:#3D3E5A;" d="M689.166,716.66c0,0,16.451,3.023,31.627-4.122l-2.131-8.245l-29.496,3.939V716.66z"
		/>
	<path style="display:inline;fill:#2892E8;" d="M679.24,574.602l0.452,1.109c31.503,16.222,29.481-0.166,29.481-0.166l2.092,0.008
		l6.32,8.711l5.195-1.066l-4.299,136.584c-16.489,7.33-29.316,4.4-29.316,4.4l-9.59-47.172l-8.15-93.812L679.24,574.602z"/>
	<path style="display:inline;fill:#485083;" d="M730.533,577.907l-21.408-3.305l1.009,8.976l1.938,22.208
		c0,0,5.667,61.862,4.403,124.91c-0.093,4.646,4.545,7.935,8.884,6.284c3.968-1.505,8.23-3.382,10.559-5.215
		C735.918,731.765,742.789,657.977,730.533,577.907z"/>
	<path style="display:inline;fill:#485083;" d="M680.145,573.665c-23.597,3.741-32.095,8.84-32.095,8.84
		c0,49.415,4.029,152.22,4.029,152.22c3.439,2.7,20.149,5.748,30.793,7.459c4.803,0.776,9.179-2.881,9.332-7.749
		C695.86,618.803,680.145,573.665,680.145,573.665z"/>
	<path style="display:inline;fill:#F9B9A8;" d="M672.089,556.128c0,0,5.302,21.374,26.391,20.275
		c24.331-1.264,25.036-31.402,21.586-45.35c-3.228-13.042-20.338-27.854-36.928-16.983
		C670.689,522.226,666.751,536.563,672.089,556.128z"/>
	<path style="display:inline;fill:#494865;" d="M691.699,543.372c0,0-1.36,9.597-0.594,16.233l-3.97-0.968
		c0,0-1.033-7.642-0.947-9.615c0.086-1.972-5.08-2.781-5.425,2.465c-0.344,5.247,2.67,9.731,4.822,11.256l-3.389,8.833
		c0,0-14.102-7.995-14.87-28.831c-0.77-20.896,10.14-34.302,26.191-34.571c0,0,26.856-1.48,30.817,26.768
		C724.333,534.944,716.842,542.116,691.699,543.372z"/>
	<polygon style="display:inline;fill:#485083;" points="761.54,554.244 782.501,490.332 802.895,495.25 783.067,574.478 
		729.816,604.599 709.125,574.602 	"/>
	<polygon style="display:inline;fill:#485083;" points="591.729,501.364 615.664,568.059 680.144,573.665 659.285,614.286 
		594.609,592.192 571.476,505.896 	"/>
</g>
<g style="display:none;">
	<g style="display:inline;">
		<g>
			<path style="fill:#F9E268;" d="M641.004,440.774c-13.111-15.957-16.262-37.305-15.583-52.944
				c1.641-37.808,23.2-66.027,50.86-81.224c12.327-6.772,27.945-9.569,45.233-5.424c9.287,2.227,18.985,6.329,27.23,14.594
				l-12.637-12.625c-0.865-0.866-1.757-1.698-2.665-2.506c-0.304-0.269-0.616-0.517-0.923-0.78
				c-10.011-8.54-21.911-12.637-32.132-13.659c-10.269-1.026-20.203,0.494-28.704,3.49c-0.256,0.09-0.507,0.195-0.761,0.287
				c-0.492,0.18-0.983,0.366-1.471,0.556c-31.126,12.1-53.66,42.307-56.953,80.656c-1.575,18.336,1.851,43.404,20.086,61.633
				l12.626,12.614c-0.726-0.726-1.429-1.478-2.124-2.244c-0.207-0.229-0.412-0.465-0.615-0.699
				C641.972,441.934,641.483,441.358,641.004,440.774z"/>
			<g>
				<path style="fill:#F9CB69;" d="M697.484,299.051c-39.955,5.789-72.575,46.995-72.855,92.04
					c-0.283,45.041,31.881,76.862,71.836,71.074c39.958-5.79,72.577-47,72.857-92.043
					C769.605,325.085,737.441,293.262,697.484,299.051z"/>
			</g>
		</g>
		<g>
			<path style="fill:#F5A967;" d="M698.476,314.758c-33.012,4.783-59.964,38.828-60.195,76.046
				c-0.234,37.214,26.341,63.506,59.353,58.724c33.014-4.784,59.964-38.833,60.195-76.048
				C758.063,336.266,731.488,309.974,698.476,314.758z"/>
		</g>
		<path style="fill:#F9E268;" d="M690.702,442.287c33.015-4.783,59.964-38.833,60.197-76.047
			c0.099-15.911-4.73-29.794-12.841-40.138c12.22,10.561,19.898,27.359,19.771,47.377c-0.232,37.214-27.183,71.263-60.196,76.048
			c-18.898,2.736-35.657-4.739-46.515-18.587C661.614,440.012,675.449,444.497,690.702,442.287z"/>
	</g>
	<path style="display:inline;fill:#F56F5B;" d="M717.433,381.553c-1.224-2.219-3.16-4.134-5.802-5.744
		c-2.646-1.61-7.1-3.326-13.364-5.137l0.1-16.066c5.279-0.257,10.424,0.413,15.434,2.006l4.621-13.401
		c-5.942-2.114-12.598-2.817-19.971-2.113l0.051-8.112l-6.618,0.959l-0.052,8.33c-6.543,1.673-11.656,4.473-15.33,8.399
		c-3.678,3.926-5.533,8.519-5.566,13.782c-0.031,4.903,1.273,8.82,3.91,11.758c2.638,2.938,7.136,5.361,13.495,7.267l3.228,0.948
		l-0.105,16.885c-3.091,0.231-6.606,0.03-10.544-0.594c-3.938-0.628-7.304-1.517-10.097-2.675l-0.09,14.377
		c5.907,2.084,12.791,2.645,20.651,1.689l-0.068,10.946l6.618-0.959l0.07-11.163c6.67-1.657,11.869-4.504,15.596-8.546
		c3.723-4.037,5.605-8.944,5.641-14.72C719.26,386.474,718.658,383.769,717.433,381.553z M686.93,366.083
		c-0.978-0.89-1.459-2.135-1.449-3.734c0.019-3.086,2.107-5.273,6.268-6.566l-0.08,12.798
		C689.481,367.811,687.904,366.977,686.93,366.083z M698.084,399.974l0.085-13.562c2.183,0.808,3.819,1.661,4.907,2.555
		c1.088,0.893,1.628,2.102,1.618,3.628C704.672,396.045,702.469,398.501,698.084,399.974z"/>
</g>
</svg>
